# xmcd
#
# Track frame offsets:
#	150
#	11397
#	22921
#	36092
#	48111
#	61831
#	74504
#	88040
#	101346
#	113812
#	128849
#	144299
#	155578
#	166909
#
# Disc length: 2407 seconds
#
# Revision: 1
# Processed by: cddbd v1.5.2PL0 Copyright (c) Steve Scherf et al.
# Submitted via: audiograbber 1.83.01
#
DISCID=a709650e
DTITLE=Various Artist - The Blues Box CD1
DYEAR=2006
DGENRE=Blues
TTITLE0=John Lee Hooker - Boom Boom
TTITLE1=Elmore James - Shake Your Moneymaker
TTITLE2=Muddy Waters - Mannish Boy
TTITLE3=Jimmy Reed - Bright Lights, Big City
TTITLE4=Howlin' Wolf - Smokestack Lightning
TTITLE5=Little Walter - Juke
TTITLE6=Sonny Boy Williamson - Better Cut That Out
TTITLE7=Lightnin' Hopkins - Black Cat Bone
TTITLE8=Roosevelt Sykes - The Honeydripper
TTITLE9=Bo Carter - Corrine, Corrina
TTITLE10=Big Joe Williams - Baby Please Don't Go
TTITLE11=Arthur Crudup - My Baby Left Me
TTITLE12=Lowell Fulson - Every Day I Have The Blues
TTITLE13=B.B. King - Three O'Clock Blues
EXTD=
EXTT0=
EXTT1=
EXTT2=
EXTT3=
EXTT4=
EXTT5=
EXTT6=
EXTT7=
EXTT8=
EXTT9=
EXTT10=
EXTT11=
EXTT12=
EXTT13=
PLAYORDER=
